<?xml version="1.0" encoding="utf-8"?><svg version="1.1" id="Layer_1" xmlns="http://www.w3.org/2000/svg" xmlns:xlink="http://www.w3.org/1999/xlink" x="0px" y="0px" viewBox="0 0 71.3 122.88" style="enable-background:new 0 0 71.3 122.88" xml:space="preserve"><g><path d="M12.46,0h46.38c3.43,0,6.56,1.4,8.81,3.65c2.25,2.25,3.65,5.38,3.65,8.81v97.96c0,3.43-1.4,6.56-3.65,8.81 c-2.25,2.25-5.38,3.65-8.81,3.65H12.46c-3.43,0-6.56-1.4-8.81-3.65C1.4,116.98,0,113.85,0,110.42V12.46C0,9.03,1.4,5.9,3.65,3.65 C5.9,1.4,9.03,0,12.46,0L12.46,0z M52.66,45.2h7.16c1.8,0,3.26,1.47,3.26,3.26v7.16c0,1.8-1.47,3.26-3.26,3.26h-7.16 c-1.8,0-3.26-1.47-3.26-3.26v-7.16C49.4,46.67,50.87,45.2,52.66,45.2L52.66,45.2z M32.07,45.2h7.16c1.8,0,3.26,1.47,3.26,3.26v7.16 c0,1.8-1.47,3.26-3.26,3.26h-7.16c-1.8,0-3.26-1.47-3.26-3.26v-7.16C28.81,46.67,30.27,45.2,32.07,45.2L32.07,45.2z M11.48,45.2 h7.16c1.8,0,3.26,1.47,3.26,3.26v7.16c0,1.8-1.47,3.26-3.26,3.26h-7.16c-1.8,0-3.26-1.47-3.26-3.26v-7.16 C8.21,46.67,9.68,45.2,11.48,45.2L11.48,45.2z M52.66,24.73h7.16c1.8,0,3.26,1.47,3.26,3.26v7.16c0,1.8-1.47,3.26-3.26,3.26h-7.16 c-1.8,0-3.26-1.47-3.26-3.26v-7.16C49.4,26.2,50.87,24.73,52.66,24.73L52.66,24.73z M32.07,24.73h7.16c1.8,0,3.26,1.47,3.26,3.26 v7.16c0,1.8-1.47,3.26-3.26,3.26h-7.16c-1.8,0-3.26-1.47-3.26-3.26v-7.16C28.81,26.2,30.27,24.73,32.07,24.73L32.07,24.73z M11.48,24.73h7.16c1.8,0,3.26,1.47,3.26,3.26v7.16c0,1.8-1.47,3.26-3.26,3.26h-7.16c-1.8,0-3.26-1.47-3.26-3.26v-7.16 C8.21,26.2,9.68,24.73,11.48,24.73L11.48,24.73z M32.79,86.71c-0.05-0.03-0.12-0.06-0.17-0.1c-0.68-0.54-1.43-1.14-2.07-1.67 c-0.94-0.77-2.02-1.66-2.78-2.29c-0.51-0.42-1.1-0.72-1.66-0.84c-0.36-0.06-0.68-0.06-0.94,0.04c-0.21,0.09-0.39,0.26-0.5,0.51 c-0.15,0.35-0.23,0.84-0.19,1.5c0.04,0.59,0.24,1.23,0.51,1.86c0.4,0.91,0.95,1.76,1.36,2.3c0.03,0.04,0.05,0.06,0.06,0.1 l7.8,11.14h20.5c1.27-2.08,2.35-3.92,2.48-6.52l-0.08-3.65c-0.01-0.05-0.01-0.1-0.01-0.15c0-0.05,0-0.4,0.01-0.86 c0.03-2.42,0.06-5.4-2.15-5.77h-1.43c-0.01,0.68-0.05,1.38-0.09,2.04c-0.04,0.6-0.08,1.17-0.08,1.72c0,0.59-0.48,1.07-1.07,1.07 c-0.59,0-1.07-0.48-1.07-1.07c0-0.55,0.04-1.2,0.08-1.86c0.14-2.28,0.31-4.88-1.5-5.21h-1.41c-0.08,0-0.15-0.01-0.23-0.03 c0.01,0.82-0.04,1.67-0.09,2.49c-0.04,0.6-0.08,1.17-0.08,1.72c0,0.59-0.48,1.07-1.07,1.07c-0.59,0-1.07-0.48-1.07-1.07 c0-0.55,0.04-1.2,0.08-1.86c0.14-2.28,0.31-4.88-1.5-5.21h-1.41c-0.1,0-0.19-0.01-0.28-0.04v4.15c0,0.59-0.48,1.07-1.07,1.07 c-0.59,0-1.07-0.48-1.07-1.07V69.12c0-1.86-0.76-3.05-1.74-3.53c-0.36-0.18-0.75-0.27-1.12-0.27c-0.37,0-0.76,0.09-1.12,0.27 c-0.96,0.49-1.71,1.67-1.71,3.59v19.52c0,0.59-0.48,1.07-1.07,1.07c-0.59,0-1.07-0.48-1.07-1.07v-1.98H32.79L32.79,86.71z M31.67,99.28l-6.95-9.94l-0.04-0.04c-0.48-0.63-1.12-1.62-1.61-2.71c-0.36-0.82-0.63-1.71-0.69-2.58 c-0.06-1.04,0.08-1.86,0.37-2.52c0.36-0.81,0.95-1.34,1.66-1.62c0.66-0.27,1.4-0.31,2.15-0.15c0.9,0.18,1.83,0.63,2.61,1.28 c0.64,0.54,1.72,1.41,2.78,2.28L32.82,84V69.18c0-2.84,1.26-4.67,2.89-5.49c0.66-0.33,1.36-0.5,2.08-0.5c0.72,0,1.43,0.17,2.08,0.5 c1.63,0.82,2.92,2.66,2.92,5.45v4.91l-0.03-0.01c0.09-0.03,0.18-0.04,0.28-0.04h1.48c0.08,0,0.17,0.01,0.24,0.03 c1.97,0.31,2.85,1.45,3.21,2.94c0.14-0.06,0.3-0.1,0.45-0.1h1.48c0.08,0,0.17,0.01,0.24,0.03c2.12,0.33,2.97,1.63,3.28,3.28 c0.05-0.01,0.1-0.01,0.17-0.01h1.48c0.08,0,0.17,0.01,0.24,0.03c4.06,0.63,4.01,4.67,3.97,7.92v0.85l0.09,3.75v0.12 c-0.13,2.66-1.02,4.54-2.15,6.46h11.08V19.21H2.99v80.08l0,0H31.67L31.67,99.28z M28.94,113c-0.81,0-1.51-0.66-1.51-1.51 c0-0.81,0.66-1.51,1.51-1.51h13.71c0.81,0,1.51,0.66,1.51,1.51c0,0.81-0.66,1.51-1.51,1.51H28.94L28.94,113z M27.65,7.15 c1.33,0,2.4,1.07,2.4,2.4c0,1.33-1.07,2.4-2.4,2.4c-1.33,0-2.4-1.07-2.4-2.4C25.25,8.22,26.32,7.15,27.65,7.15L27.65,7.15z M35.65,7.15c1.33,0,2.4,1.07,2.4,2.4c0,1.33-1.07,2.4-2.4,2.4c-1.33,0-2.4-1.07-2.4-2.4C33.25,8.22,34.32,7.15,35.65,7.15 L35.65,7.15z M43.65,7.15c1.33,0,2.4,1.07,2.4,2.4c0,1.33-1.07,2.4-2.4,2.4c-1.33,0-2.4-1.07-2.4-2.4 C41.26,8.22,42.32,7.15,43.65,7.15L43.65,7.15z M68.32,102.27H2.99v8.11c0,2.62,1.07,4.98,2.8,6.67c1.73,1.73,4.09,2.8,6.67,2.8 h46.38c2.62,0,4.98-1.07,6.67-2.8c1.73-1.73,2.8-4.09,2.8-6.67V102.27L68.32,102.27L68.32,102.27z M2.99,16.19h65.33v-3.72 c0-2.62-1.07-4.98-2.8-6.67c-1.73-1.73-4.09-2.8-6.67-2.8H12.46c-2.62,0-4.98,1.07-6.67,2.8c-1.73,1.73-2.8,4.09-2.8,6.67V16.19 L2.99,16.19L2.99,16.19z"/></g></svg>