<svg id="Layer_1" data-name="Layer 1" xmlns="http://www.w3.org/2000/svg" viewBox="0 0 122.88 65.64"><title>robust-strong</title><path d="M107.11,43.22a1.58,1.58,0,1,1-1.24,2.91c-3-1.29-5.06-3.91-6.41-7.46A16,16,0,0,0,91.37,36a11.65,11.65,0,0,0-6.22,1.75,14.48,14.48,0,0,1,2.83,4,1.59,1.59,0,1,1-2.85,1.39,11.14,11.14,0,0,0-5.35-5.34,20,20,0,0,0-9.18-1.56,1.59,1.59,0,0,1-.08-3.17A23.17,23.17,0,0,1,81.14,35a13.88,13.88,0,0,1,1.37.74,15.14,15.14,0,0,1,8.89-2.86,17.42,17.42,0,0,1,6.85,1.59l0-.07A84.13,84.13,0,0,1,97,17.49c-2.17.74-4.32,1.47-6.5,2.18a5.3,5.3,0,0,1-4.92,0A7.15,7.15,0,0,1,82.63,16l-2.11-3.4c-1.25-2.08-1.41-4-.46-5.76.86-1.57,2.6-2.88,5.25-3.92,2.36-.82,4.85-1.62,7.23-2.37a7.66,7.66,0,0,1,5.37-.1A8.81,8.81,0,0,1,102.06,4c6.08,3.91,10.5,9.68,13.59,16.91s4.83,15.82,5.62,25.5c1.39,4,2,7.29,1.32,9.75-.81,2.81-3.07,4.44-7.42,4.7a147.42,147.42,0,0,1-26.53,4.61c-7.75.48-14.16-.21-19-2.25a1.59,1.59,0,1,1,1.21-2.93c4.42,1.85,10.36,2.47,17.63,2a144.7,144.7,0,0,0,26.07-4.56l.31,0c2.87-.15,4.29-1,4.7-2.41.51-1.77-.08-4.48-1.29-7.94a1.73,1.73,0,0,1-.12-.51c-.75-9.44-2.44-17.81-5.38-24.7s-7-12.12-12.65-15.66A1.55,1.55,0,0,1,99.58,6,6.05,6.05,0,0,0,96.8,3.41a4.59,4.59,0,0,0-3.19.11L86.43,5.88c-1.9.75-3.1,1.57-3.57,2.45A2.61,2.61,0,0,0,83.23,11l2.15,3.46a2.44,2.44,0,0,1,.14.28,4.27,4.27,0,0,0,1.57,2.24,2.34,2.34,0,0,0,2.1-.15l.25-.11.59-.19c.21-.84.41-1.54.58-2.12.22-.78.79-.57.57-.9-.47-.69-.11.93-1.45,1.47l-.46.19a1.58,1.58,0,0,1-1.18-2.94l.46-.19c3-1.21,4.29-1.73,5.26-.29.59.89.32,1.84-.15,3.51l0,.06,4.44-1.5a1.29,1.29,0,0,1,.52-.08,1.58,1.58,0,0,1,1.57,1.6c-.09,6.89.09,13.37,1.17,18.46,1,4.72,2.74,8.17,5.77,9.47ZM29.24,15.28l0-.07c-.48-1.67-.74-2.62-.15-3.51,1-1.44,2.26-.92,5.26.29l.46.19a1.58,1.58,0,1,1-1.18,2.94l-.46-.19c-1.34-.54-1-2.16-1.45-1.47-.22.33.35.12.57.9.17.58.37,1.28.58,2.12l.59.19.25.11a2.34,2.34,0,0,0,2.1.15,4.27,4.27,0,0,0,1.57-2.24,2.44,2.44,0,0,1,.14-.28L39.65,11A2.61,2.61,0,0,0,40,8.33Q39.3,7,36.44,5.88L29.27,3.52a4.59,4.59,0,0,0-3.19-.11A6.05,6.05,0,0,0,23.3,6a1.55,1.55,0,0,1-.51.51C17.15,10.05,13,15.4,10.14,22.17S5.51,37.43,4.76,46.87a1.73,1.73,0,0,1-.12.51c-1.21,3.46-1.8,6.17-1.29,7.94.41,1.43,1.83,2.26,4.7,2.41a1.67,1.67,0,0,1,.31.05,145.47,145.47,0,0,0,26.07,4.55c7.27.45,13.21-.17,17.63-2a1.59,1.59,0,1,1,1.21,2.93c-4.87,2-11.28,2.73-19,2.25A147.28,147.28,0,0,1,7.71,60.88C3.36,60.62,1.1,59,.29,56.18c-.71-2.46-.07-5.73,1.32-9.75.79-9.68,2.55-18.31,5.62-25.5S14.74,7.93,20.82,4A8.81,8.81,0,0,1,25,.44a7.66,7.66,0,0,1,5.37.1c2.38.75,4.87,1.55,7.23,2.37C40.22,4,42,5.26,42.82,6.83c1,1.76.79,3.68-.46,5.76L40.25,16a7.15,7.15,0,0,1-2.93,3.72,5.3,5.3,0,0,1-4.92,0c-2.18-.71-4.33-1.44-6.5-2.18a84.13,84.13,0,0,1-1.25,16.9l0,.07a17.42,17.42,0,0,1,6.85-1.59,15.14,15.14,0,0,1,8.89,2.86A13.88,13.88,0,0,1,41.74,35a23.17,23.17,0,0,1,10.62-1.87,1.59,1.59,0,0,1-.08,3.17,20,20,0,0,0-9.18,1.56,11.14,11.14,0,0,0-5.35,5.34A1.59,1.59,0,0,1,34.9,41.8a14.48,14.48,0,0,1,2.83-4A11.65,11.65,0,0,0,31.51,36a16,16,0,0,0-8.09,2.63C22.07,42.22,20,44.84,17,46.13a1.58,1.58,0,1,1-1.24-2.91c3-1.3,4.78-4.75,5.77-9.47,1.08-5.09,1.26-11.57,1.17-18.46a1.58,1.58,0,0,1,1.57-1.6,1.29,1.29,0,0,1,.52.08l4.44,1.51Z"/></svg>