<svg xmlns="http://www.w3.org/2000/svg" shape-rendering="geometricPrecision" text-rendering="geometricPrecision" image-rendering="optimizeQuality" fill-rule="evenodd" clip-rule="evenodd" viewBox="0 0 503 512.29"><path fill-rule="nonzero" d="M361.64 89.03c-11.03-7.09-14.23-21.78-7.15-32.81 7.08-11.04 21.77-14.24 32.81-7.16a249.671 249.671 0 0 1 46.11 38.03A252.198 252.198 0 0 1 469.24 135l.78 1.47c34.05 59.82 40.9 127.75 24.39 189.37C477.75 388 437.38 443.8 377.24 478.52c-60.17 34.74-128.7 41.82-190.83 25.17-62.16-16.65-117.97-57.02-152.69-117.16l-.76-1.42C9.16 343.31-1.34 297.54.14 252.72c1.54-46.86 16.17-92.7 42.36-131.87 7.29-10.89 22.02-13.8 32.9-6.51 10.89 7.29 13.8 22.02 6.51 32.9-21.25 31.79-33.12 68.97-34.38 106.97-1.19 36.37 7.3 73.49 26.57 107.39l.7 1.13c28.16 48.79 73.45 81.54 123.88 95.05 50.45 13.52 106.03 7.81 154.77-20.33 48.78-28.17 81.54-73.45 95.05-123.88 13.41-50.07 7.9-105.19-19.66-153.67l-.68-1.1c-8.33-14.44-18.15-27.47-29.14-39-11.27-11.82-23.85-22.11-37.38-30.77zM241.75 5.56c19.82-11.45 45.18-4.65 56.63 15.18 11.44 19.83 4.65 45.18-15.18 56.63-19.82 11.45-45.18 4.65-56.63-15.18-11.45-19.83-4.65-45.18 15.18-56.63zm-135.4 28.61 104.62 249.99c12.92 22.38 41.53 30.05 63.91 17.13 22.38-12.93 30.04-41.54 17.12-63.92L132.06 19.33c-11.9-13.52-32.85.22-25.71 14.84z"/></svg>